<?xml version="1.0" encoding="UTF-8" standalone="no"?>
<svg
   xmlns:dc="http://purl.org/dc/elements/1.1/"
   xmlns:cc="http://creativecommons.org/ns#"
   xmlns:rdf="http://www.w3.org/1999/02/22-rdf-syntax-ns#"
   xmlns:svg="http://www.w3.org/2000/svg"
   xmlns="http://www.w3.org/2000/svg"
   id="svg938"
   version="1.1"
   viewBox="0 0 532.33722 466.31885"
   height="466.31885"
   width="532.33722">
  <metadata
     id="metadata944">
    <rdf:RDF>
      <cc:Work
         rdf:about="">
        <dc:format>image/svg+xml</dc:format>
        <dc:type
           rdf:resource="http://purl.org/dc/dcmitype/StillImage" />
        <dc:title></dc:title>
      </cc:Work>
    </rdf:RDF>
  </metadata>
  <defs
     id="defs942" />
  <path
     style="fill:#808080;fill-rule:evenodd;stroke:#888888;stroke-width:9;stroke-linecap:round;stroke-linejoin:round;stroke-opacity:1"
     id="path924-2-6-2"
     d="M 99.838822,355.91342 4.5616221,398.7588" />
  <path
     style="fill:#808080;fill-rule:evenodd;stroke:#888888;stroke-width:9;stroke-linecap:round;stroke-linejoin:round;stroke-opacity:1"
     id="path924-2-6-2-6"
     d="m 227.17182,395.24643 -23.9339,64.87523" />
  <path
     style="fill:#808080;fill-rule:evenodd;stroke:#888888;stroke-width:9;stroke-linecap:round;stroke-linejoin:round;stroke-opacity:1"
     id="path924-2-6-2-1"
     d="m 527.77402,311.39398 -83.2692,-20.23056" />
  <path
     style="fill:#808080;fill-rule:evenodd;stroke:#888888;stroke-width:9;stroke-linecap:round;stroke-linejoin:round;stroke-opacity:1"
     id="path924-2-6-2-8"
     d="M 527.77402,4.5640912 435.17082,103.23843" />
  <path
     style="fill:#ff0000;fill-rule:nonzero;stroke:none;stroke-width:1"
     id="Shape"
     d="m 210.50482,97.238426 c -0.811,9.417004 -15.845,14.510004 -10,24.000004 4.487,1.468 4.397,-5.194 6,-8 3.986,-6.979 11.016,-15.072004 24,-11 12.095,3.793 19.024,21.89 15,40 -4.438,19.974 -35.163,30.813 -60,24 -16.471,-4.518 -28.401,-21.133 -24,-44 1.186,-6.158 4.422,-15.724 8,-20 6.368,-7.611004 26.42,-17.767004 41,-5.000004 z" />
  <path
     style="fill:#000000;fill-rule:nonzero;stroke:none;stroke-width:1"
     id="path910"
     d="m 158.50482,113.23843 c 1.602,1.157 -7.354,10.959 -10.655,16.679 -4.569,7.915 -3.487,9.676 -1.165,17.855 1.735,6.112 2.809,12.426 5.033,18.396 4.164,11.181 -4.564,2.056 -7.213,-0.93 -6.236,-7.028 -18.078,-21.467 -15.328,-31.551 1.756,-6.439 24.828,-23.699 29.328,-20.449 z" />
  <path
     style="fill:#000000;fill-rule:nonzero;stroke:none;stroke-width:1"
     id="path912"
     d="m 270.33882,136.98843 c -6.083,-2.333 -14.917,-7.25 -16.083,-4.333 -2.055,5.138 4.917,3.75 10.583,9.75 4.889,5.175 1.583,10.583 -4.583,16.417 -4.616,4.366 -5.834,3.859 -9.917,8.75 -8,9.583 2.631,5.602 6.25,3.917 8.518,-3.966 33.167,-18.083 32.25,-25.75 -0.997,-8.345 -10.383,-5.638 -18.5,-8.751 z" />
  <path
     style="fill:#000000;fill-rule:nonzero;stroke:none;stroke-width:1"
     id="path914"
     d="m 217.50482,175.23843 c -0.435,-1.857 -10.139,1.074 -16.5,2.833 -7.833,2.167 -12.223,3.151 -18.833,-2 -4.939,-3.85 -9.766,-11.94 -14.445,-16.1 -4.388,-3.9 -4.222,1.6 -1.977,6.742 3.646,8.353 12.642,24.134 22.995,25.513 6.611,0.881 29.982,-11.773 28.76,-16.988 z" />
  <path
     style="fill:none;fill-rule:evenodd;stroke:#000000;stroke-width:9;stroke-linecap:round;stroke-linejoin:round"
     id="path916"
     d="m 225.17182,198.57143 c -88.667,5.99999 -118,-21.333 -125.332998,-39.333" />
  <path
     style="fill:none;fill-rule:evenodd;stroke:#000000;stroke-width:9;stroke-linecap:round;stroke-linejoin:round"
     id="path918"
     d="m 227.17182,395.24643 c -88.333,5.99199 -118,-13.67401 -127.332998,-39.33301" />
  <path
     style="fill:none;fill-rule:evenodd;stroke:#000000;stroke-width:9;stroke-linecap:round;stroke-linejoin:round"
     id="path920"
     d="m 257.88382,132.84443 177.287,-29.606" />
  <path
     style="fill:none;fill-rule:evenodd;stroke:#000000;stroke-width:9;stroke-linecap:round;stroke-linejoin:round"
     id="path922"
     d="m 99.837822,159.23843 25.403998,-4.243" />
  <path
     style="fill:#808080;fill-rule:evenodd;stroke:#888888;stroke-width:9;stroke-linecap:round;stroke-linejoin:round;stroke-opacity:1"
     id="path924-2-6-2-7"
     d="M 99.837822,159.23843 4.5632221,91.928903" />
  <path
     style="fill:none;fill-rule:evenodd;stroke:#000000;stroke-width:9;stroke-linecap:round;stroke-linejoin:round"
     id="path924"
     d="m 435.17082,103.23843 -209.999,95.333" />
  <path
     style="fill:none;fill-rule:evenodd;stroke:#000000;stroke-width:9;stroke-linecap:round;stroke-linejoin:round"
     id="path926"
     d="M 99.837822,159.23843 V 355.91342" />
  <path
     style="fill:#000000;fill-rule:nonzero;stroke:none;stroke-width:1"
     id="path928"
     d="m 444.50482,159.49543 c 0,1.988 -1.611,4.382 -3.6,5.349 l -210.133,102.12099 c -1.988,0.967 -3.6,0.13901 -3.6,-1.85 v -41.46699 c 0,-1.988 1.612,-4.383 3.6,-5.35 l 210.133,-102.121 c 1.988,-0.966 3.6,-0.137 3.6,1.851 z" />
  <path
     style="fill:#000000;fill-rule:nonzero;stroke:none;stroke-width:1"
     id="path930"
     d="m 444.50482,227.49643 c 0,1.988 -1.611,4.382 -3.6,5.348 l -210.133,102.12099 c -1.988,0.967 -3.6,0.13901 -3.6,-1.85 v -41.467 c 0,-1.98699 1.612,-4.38299 3.6,-5.34999 l 210.133,-102.12 c 1.988,-0.966 3.6,-0.137 3.6,1.851 z" />
  <path
     style="fill:#000000;fill-rule:nonzero;stroke:none;stroke-width:1"
     id="path932"
     d="m 444.50482,291.16342 c 0,1.988 -1.611,4.382 -3.6,5.348 l -210.133,102.121 c -1.988,0.967 -3.6,0.139 -3.6,-1.85 v -41.467 c 0,-1.987 1.612,-4.383 3.6,-5.35 l 210.133,-102.12 c 1.988,-0.966 3.6,-0.138 3.6,1.851 z" />
  <path
     style="fill:#808080;fill-rule:evenodd;stroke:#888888;stroke-width:9;stroke-linecap:round;stroke-linejoin:round;stroke-opacity:1"
     id="path924-2-6-2-9"
     d="m 225.17182,198.57143 -25.0544,-45.27966" />
  <path
     style="fill:none;fill-rule:evenodd;stroke:#737373;stroke-width:9;stroke-linecap:round;stroke-linejoin:round;stroke-opacity:1"
     id="path916-6"
     d="M 200.11742,153.29177 C 61.772322,162.65228 16.004722,120.01045 4.5632221,91.928903" />
  <path
     style="fill:none;fill-rule:evenodd;stroke:#737373;stroke-width:9;stroke-linecap:round;stroke-linejoin:round;stroke-opacity:1"
     id="path918-2"
     d="M 203.23792,460.12166 C 65.414022,469.46969 19.125222,438.78905 4.5632221,398.7588" />
  <path
     style="fill:none;fill-rule:evenodd;stroke:#737373;stroke-width:9;stroke-linecap:round;stroke-linejoin:round;stroke-opacity:1"
     id="path920-9"
     d="M 4.5632221,91.928903 527.77402,4.5640912" />
  <path
     style="fill:none;fill-rule:evenodd;stroke:#737373;stroke-width:9;stroke-linecap:round;stroke-linejoin:round;stroke-opacity:1"
     id="path926-7"
     d="M 4.5616221,91.928903 V 398.7588" />
  <path
     style="fill:none;fill-rule:evenodd;stroke:#737373;stroke-width:9;stroke-linecap:round;stroke-linejoin:round;stroke-opacity:1"
     id="path926-7-0"
     d="M 527.77402,4.5640912 V 311.39398" />
  <path
     style="fill:none;fill-rule:evenodd;stroke:#737373;stroke-width:9;stroke-linecap:round;stroke-linejoin:round;stroke-opacity:1"
     id="path924-2-6"
     d="M 527.77402,311.39398 203.23792,460.12166" />
  <path
     style="fill:#808080;fill-rule:evenodd;stroke:#737373;stroke-width:9;stroke-linecap:round;stroke-linejoin:round;stroke-opacity:1"
     id="path924-2"
     d="M 527.77402,4.5640912 200.11742,153.29177" />
  <path
     style="fill:none;fill-rule:evenodd;stroke:#737373;stroke-width:9;stroke-linecap:round;stroke-linejoin:round;stroke-opacity:1"
     id="path926-7-0-2"
     d="m 200.11742,153.29177 3.1205,306.82989" />
  <path
     style="fill:#000000;fill-rule:nonzero;stroke:none;stroke-width:1"
     id="path934"
     d="m 223.61282,46.762426 c -0.75,-0.824 -1.124,-2.098 0,-3.671 1.62,-2.268 3.454,-5.159 4.869,-5.994 2.922,-1.723 3.971,1.273 5.169,3.371 1.198,2.098 15.882,27.045 17.081,28.469 1.491,1.77 0.899,3.221 -1.498,5.169 -3.09,2.512 -23.599,19.703 -26.67,22.4 -3.071,2.697 -8.331,1.428 -4.87,-2.322 3.596,-3.896 20.052,-19.066 21.951,-20.677 2.472,-2.098 2.472,-4.195 0.899,-6.068 -1.466,-1.745 -16.931,-20.677 -16.931,-20.677 z" />
</svg>
